<?xml version="1.0" encoding="UTF-8" standalone="no"?>
<!-- Created with Inkscape (http://www.inkscape.org/) -->

<svg
   width="81.175163mm"
   height="93.076317mm"
   viewBox="0 0 81.175163 93.076317"
   version="1.1"
   id="svg617"
   inkscape:version="1.2.2 (b0a8486541, 2022-12-01)"
   sodipodi:docname="logo.svg"
   xmlns:inkscape="http://www.inkscape.org/namespaces/inkscape"
   xmlns:sodipodi="http://sodipodi.sourceforge.net/DTD/sodipodi-0.dtd"
   xmlns="http://www.w3.org/2000/svg"
   xmlns:svg="http://www.w3.org/2000/svg">
  <sodipodi:namedview
     id="namedview619"
     pagecolor="#ffffff"
     bordercolor="#000000"
     borderopacity="0.25"
     inkscape:showpageshadow="2"
     inkscape:pageopacity="0.0"
     inkscape:pagecheckerboard="0"
     inkscape:deskcolor="#d1d1d1"
     inkscape:document-units="mm"
     showgrid="false"
     inkscape:zoom="0.37861251"
     inkscape:cx="-182.24437"
     inkscape:cy="413.35137"
     inkscape:window-width="1234"
     inkscape:window-height="651"
     inkscape:window-x="0"
     inkscape:window-y="0"
     inkscape:window-maximized="1"
     inkscape:current-layer="layer1" />
  <defs
     id="defs614">
    <rect
       x="3915.1099"
       y="5428.0054"
       width="2337.9001"
       height="1297.923"
       id="rect81124-67-7-67-1" />
    <rect
       x="3915.1099"
       y="5428.0054"
       width="2337.9001"
       height="1297.923"
       id="rect81124-67-18-3-2" />
    <rect
       x="4793.8447"
       y="4964.1777"
       width="1284.0677"
       height="429.31311"
       id="rect93562-5-7-5-7" />
  </defs>
  <g
     inkscape:label="Layer 1"
     inkscape:groupmode="layer"
     id="layer1"
     transform="translate(-152.98653,-40.115957)">
    <g
       id="g4755"
       transform="matrix(0.77009412,0,0,0.77009412,-566.11513,-253.75309)">
      <path
         style="display:inline;fill:#153346;fill-opacity:1;stroke-width:0.176389"
         d="m 990.62716,460.98145 c -1.83099,-0.24302 -3.73255,-1.09856 -4.72722,-2.12715 -0.63207,-0.65367 -0.68463,-0.79529 -0.92146,-2.48285 -0.41347,-2.94637 -1.27512,-4.49329 -3.59334,-6.45128 -0.83239,-0.70303 -3.2324,-1.9381 -4.60448,-2.36957 -3.34763,-1.0526 -4.09831,-1.32911 -5.52698,-2.03569 -1.29724,-0.64158 -1.54373,-0.71528 -1.47171,-0.43983 0.10719,0.40989 -0.0988,0.41636 -2.34989,0.0737 -1.96625,-0.29934 -3.11092,-0.67234 -5.08172,-1.65577 -2.55666,-1.27574 -4.98098,-3.32969 -6.8668,-5.81771 l -0.97966,-1.29245 -1.20382,1.19459 c -0.66209,0.657 -1.2327,1.15922 -1.26799,1.11606 -0.0351,-0.0431 -0.43155,-0.85183 -0.88051,-1.79709 -1.72237,-3.62623 -2.41528,-6.57418 -2.41528,-10.27582 0,-3.79011 0.88366,-7.44892 2.57152,-10.6473 0.42815,-0.81135 0.77845,-1.54677 0.77845,-1.63431 0,-0.0877 -0.38507,-0.69373 -0.8557,-1.3471 -2.46436,-3.42111 -4.62712,-8.17633 -5.39393,-11.85944 -1.36349,-6.54899 -0.35649,-12.83147 2.86737,-17.889 0.5515,-0.86519 1.09318,-1.60323 1.2037,-1.64006 0.11369,-0.0379 0.40715,0.49194 0.67582,1.22029 0.59288,1.60721 1.5571,3.5926 2.07734,4.27737 0.73677,0.96975 3.07479,3.17979 4.11428,3.8891 3.82436,2.60946 9.03454,4.50153 15.06662,5.47141 3.55975,0.57233 5.40045,0.67109 13.05277,0.70012 7.39268,0.0265 9.82096,0.14929 12.52358,0.62472 3.47798,0.61194 7.20868,1.08744 8.65068,1.10264 1.5382,0.0151 1.7856,-0.0302 2.8679,-0.53654 1.6304,-0.76301 2.9682,-2.07459 3.8555,-3.78012 0.3941,-0.75757 0.7673,-1.37472 0.8292,-1.37151 0.2733,0.0151 2.0389,2.57752 2.4604,3.57205 0.442,1.04277 0.4653,1.2503 0.475,4.24486 l 0.01,3.1485 0.8766,0.6347 c 0.4821,0.34922 1.5656,1.17728 2.4077,1.84036 1.6961,1.33542 1.9819,1.85186 2.2582,4.08008 0.1,0.80417 0.2844,1.30299 0.6966,1.88209 3.4372,4.8288 4.7131,7.51797 4.893,10.31293 0.08,1.24252 0.038,1.52878 -0.3513,2.3958 -0.2432,0.54157 -0.8407,1.51121 -1.3277,2.15471 -0.726,0.95906 -0.9695,1.47795 -1.351,2.87827 -0.8757,3.21441 -2.1106,5.30747 -4.4393,7.52432 -1.905,1.81353 -3.8266,2.79609 -7.1613,3.66187 -0.7545,0.19578 -0.9624,0.37266 -1.9995,1.7009 -0.877,1.12312 -1.2339,1.45806 -1.4728,1.38225 -0.2369,-0.0752 -0.3929,0.0654 -0.6278,0.56617 -0.4028,0.85878 -1.5696,2.26118 -2.1825,2.62326 -0.3627,0.2143 -0.5734,0.5896 -0.8734,1.55584 -0.3388,1.0916 -1.6322,3.5585 -2.2824,4.35356 -0.9596,1.17313 -1.2612,1.60759 -1.7024,2.45231 -0.2786,0.53356 -0.9346,1.61926 -1.4576,2.41262 l -0.95091,1.4425 -1.62377,0.36472 c -2.90652,0.65311 -5.33539,0.85221 -7.26823,0.59585 z m 6.30596,-1.99393 c 0.88009,-0.192 1.74237,-0.47796 1.91618,-0.63522 0.33343,-0.30161 1.427,-2.08555 2.0976,-3.42142 0.2191,-0.43657 0.6696,-1.09595 1.001,-1.46525 1.4645,-1.63173 2.7243,-4.2602 3.1888,-6.65321 0.1689,-0.86997 0.3638,-1.582 0.4332,-1.5823 0.069,0 0.2122,0.16025 0.3175,0.35716 0.1053,0.19654 0.266,0.31181 0.357,0.2555 0.092,-0.0567 0.1208,0.0397 0.065,0.21543 -0.055,0.175 0.2236,-0.0302 0.6192,-0.45437 0.689,-0.7395 1.4252,-2.49162 1.4252,-3.39152 0,-0.43355 0.2623,-0.42259 0.9092,0.0382 0.6055,0.43109 0.5883,0.44398 1.5964,-1.19819 0.5302,-0.86358 0.6106,-0.9205 1.4531,-1.02893 1.9371,-0.24908 3.7935,-1.00203 5.7681,-2.33908 1.2891,-0.87284 1.5945,-1.16349 2.8213,-2.68516 1.1377,-1.4112 2.441,-4.41007 2.7173,-6.2524 0.088,-0.58518 0.3619,-1.09353 1.0672,-1.97855 1.7199,-2.15833 1.9838,-3.24514 1.2963,-5.33933 -0.8075,-2.45968 -1.9955,-4.6054 -3.9616,-7.15537 -0.9931,-1.2881 -1.0979,-1.50712 -1.2012,-2.5124 -0.062,-0.60575 -0.2016,-1.43917 -0.3097,-1.85208 -0.2008,-0.76781 -0.6054,-1.16561 -3.0606,-3.00949 -0.4916,-0.36926 -1.0289,-0.78191 -1.1941,-0.91722 -0.1653,-0.1353 -0.5504,-0.3753 -0.8559,-0.53329 -0.4939,-0.25549 -0.5433,-0.34923 -0.4458,-0.84661 0.06,-0.30765 0.1577,-1.55569 0.2165,-2.7733 0.1111,-2.29943 -0.046,-3.56841 -0.5814,-4.69667 l -0.2845,-0.5994 -1.1673,1.24158 c -2.1471,2.28359 -4.2901,3.13806 -7.4072,2.95351 -0.9337,-0.0552 -3.2057,-0.33751 -5.049,-0.62699 -6.75054,-1.06049 -10.42866,-1.30734 -17.1097,-1.14829 -4.66288,0.11111 -7.16971,-0.0189 -11.11246,-0.5695 -2.57651,-0.36057 -7.25154,-1.52364 -9.58464,-2.38415 -1.89007,-0.69717 -5.16779,-2.27251 -5.68686,-2.73331 -0.15318,-0.13607 -0.33645,-0.24719 -0.4073,-0.24719 -0.29234,0 -2.92794,-2.15293 -3.78905,-3.09513 -1.31453,-1.4383 -1.74752,-2.03765 -2.4865,-3.44201 l -0.65034,-1.23591 -0.63536,1.37299 c -3.62062,7.824 -2.02471,17.47161 4.34123,26.24374 1.05874,1.45893 1.13165,1.61609 0.90023,1.94029 -1.35126,1.89302 -2.85024,5.53047 -3.3801,8.20207 -0.35289,1.7794 -0.3891,5.57046 -0.0682,7.14376 0.28317,1.38833 0.86169,3.35033 1.24828,4.2333 0.16989,0.38804 0.36427,0.88414 0.43198,1.10245 0.0677,0.21808 0.20561,0.39685 0.30649,0.39685 0.10087,0 0.1361,-0.12321 0.0783,-0.27364 -0.0647,-0.16857 -0.0325,-0.22904 0.0842,-0.15685 0.10408,0.0643 0.58653,-0.28875 1.07208,-0.78455 0.48557,-0.49588 0.93525,-0.9015 0.99934,-0.90142 0.0641,0 0.3354,0.38997 0.60299,0.86634 1.51881,2.70422 4.25284,5.46444 6.98893,7.05585 1.1931,0.69396 3.92055,1.70733 4.87181,1.81006 0.52239,0.0563 0.52983,0.0453 0.58248,-0.86888 0.0295,-0.50933 0.087,-0.92606 0.12813,-0.92606 0.0412,0 0.61244,0.36321 1.2696,0.80738 1.78251,1.2045 4.47296,2.43183 6.72407,3.06739 3.07496,0.86816 5.30784,1.99744 7.03545,3.55828 2.03025,1.8342 3.38075,4.35329 3.5328,6.58987 0.11304,1.66253 0.48665,2.24496 1.86576,2.90868 0.59767,0.28762 1.52323,0.60015 2.05681,0.69453 1.33388,0.23584 4.12014,0.079 6.04137,-0.34016 z m -5.64075,-0.8005 c -0.50728,-0.13644 -1.22984,-0.44255 -1.6057,-0.67979 -0.5918,-0.37341 -0.69862,-0.54259 -0.79707,-1.26092 -0.23675,-1.72717 -1.54307,-4.65721 -2.70359,-6.06388 -0.98838,-1.19811 -2.11027,-2.15856 -3.42363,-2.93102 -0.73614,-0.43294 -1.39516,-0.7872 -1.46447,-0.7872 -0.0693,0 -0.78242,-0.43672 -1.58464,-0.97054 -3.95151,-2.62938 -6.07028,-5.25718 -6.43032,-7.97515 l -0.13515,-1.02024 -0.41719,0.79377 c -0.34136,0.6494 -0.43027,1.13046 -0.48908,2.64582 -0.0396,1.01862 -0.10205,1.94744 -0.13882,2.06397 -0.0709,0.2245 -2.08983,-0.80198 -3.25068,-1.65302 -1.84586,-1.35326 -3.88718,-4.11522 -4.56884,-6.18179 l -0.33649,-1.02014 -0.13432,0.68969 c -0.24783,1.27242 0.18417,5.24606 0.70644,6.49814 0.22726,0.54486 -0.29688,0.34507 -1.53509,-0.58492 -4.13391,-3.10507 -6.47489,-7.00728 -6.78193,-11.30483 l -0.10908,-1.52693 -0.39178,0.46859 c -0.73332,0.87711 -1.61101,2.4062 -2.02123,3.52135 -0.28037,0.76214 -0.46635,1.05532 -0.59064,0.93105 -0.28615,-0.28611 -0.37145,-4.77532 -0.12529,-6.59747 0.38977,-2.88563 2.06501,-7.23024 3.85517,-9.9981 l 0.51336,-0.79374 -0.72682,-0.80156 c -3.74917,-4.13462 -5.66588,-7.50384 -6.86913,-12.07484 -0.53452,-2.03043 -0.55712,-2.25668 -0.55498,-5.55618 0.002,-2.99214 0.0534,-3.63202 0.39523,-4.91902 0.21619,-0.8137 0.39302,-1.50822 0.39302,-1.54341 0,-0.034 0.0764,-0.0639 0.16981,-0.0639 0.0934,0 0.48195,0.45962 0.86345,1.02138 0.90216,1.3285 3.17308,3.65272 4.56004,4.66707 2.27816,1.66603 5.57517,3.07928 9.31314,3.99188 5.03921,1.23035 7.61313,1.45036 17.99003,1.53789 4.85068,0.0408 9.802,0.15761 11.00292,0.25965 2.18272,0.1852 7.67668,1.05124 8.83958,1.39355 1.3847,0.40755 5.3868,0.13077 7.5883,-0.52494 1.3241,-0.39431 2.8495,-1.42072 3.3973,-2.28593 0.1864,-0.29442 0.3981,-0.49848 0.4705,-0.45377 0.2874,0.17764 -0.149,4.68756 -0.5981,6.17964 l -0.234,0.77768 1.4355,0.95966 c 1.9816,1.32476 3.4799,2.62979 4.1116,3.58125 0.1385,0.20863 0.2988,0.93963 0.3562,1.6244 0.098,1.17003 0.154,1.30137 0.9279,2.1783 1.2557,1.42299 2.3609,3.06081 3.2485,4.81379 0.7827,1.54609 1.5225,3.86011 1.5225,4.76274 0,0.51035 -0.5091,1.37038 -1.5638,2.64185 -0.4177,0.50351 -0.773,1.14315 -0.8327,1.4993 -0.2241,1.33391 -1.0092,3.68916 -1.7065,5.11899 -0.973,1.99484 -2.9052,3.99405 -4.6055,4.765 -1.0447,0.47369 -1.6985,0.64955 -1.6985,0.45695 0,-0.0382 0.2435,-0.64192 0.5411,-1.34121 0.6053,-1.42238 1.2228,-3.66969 1.2228,-4.45001 0,-0.63833 -0.1,-0.61444 -2.6428,0.63262 l -1.849,0.90678 0.053,1.19221 c 0.043,0.967 -0.029,1.37107 -0.3803,2.13914 -0.4254,0.92927 -1.679,2.72425 -1.9163,2.74401 -0.066,0.004 -0.5029,-0.22412 -0.9701,-0.5105 -0.4673,-0.28611 -1.0764,-0.57486 -1.3537,-0.64123 -0.4815,-0.11528 -0.4944,-0.1028 -0.2876,0.28384 0.2942,0.54981 0.1295,2.8803 -0.2678,3.78849 -0.2834,0.64766 -0.325,0.67733 -0.5066,0.3617 -0.3958,-0.6881 -1.3471,-1.45316 -2.08,-1.67271 -0.7299,-0.21883 -0.7611,-0.21127 -1.1606,0.27855 -1.177,1.44284 -3.9642,6.43151 -3.72625,6.66943 0.18013,0.18029 2.37705,-1.43127 3.40055,-2.49422 0.59,-0.61281 1.1329,-1.11421 1.2064,-1.11421 0.225,0 0.1488,1.45403 -0.1345,2.56464 -0.3235,1.26811 -0.8565,2.55957 -1.434,3.47448 -0.235,0.37229 -0.3788,0.75511 -0.3196,0.85096 0.059,0.096 0.034,0.15232 -0.056,0.12586 -0.2051,-0.0609 -1.2206,1.25537 -2.15451,2.79262 -1.29697,2.13483 -1.96012,2.78978 -3.16361,3.12434 -1.3041,0.36246 -3.9559,0.37493 -5.25662,0.0265 z m 5.12726,-1.73363 c 0.70633,-0.29518 1.2634,-0.85164 1.7005,-1.6989 l 0.3185,-0.61735 h -1.78906 c -1.64422,0 -1.85334,-0.0393 -2.58282,-0.48703 -2.04063,-1.25212 -3.16055,-2.89428 -4.57183,-6.70386 -1.69415,-4.573 -2.37412,-7.7376 -2.37767,-11.06532 -0.002,-2.24444 0.031,-2.47631 0.5788,-4.03548 0.8952,-2.54744 1.65259,-3.77718 3.43227,-5.57276 2.73725,-2.76178 5.60394,-3.34352 12.97078,-2.63225 3.1134,0.30047 8.4532,0.2623 9.4586,-0.068 0.291,-0.0956 0.8665,-0.27514 1.2788,-0.39904 0.8549,-0.25663 0.8971,-0.42191 0.372,-1.45459 -1.073,-2.11026 -3.8956,-5.29168 -5.8085,-6.54693 -0.4297,-0.28195 -0.9875,-0.65254 -1.2397,-0.82349 -1.1655,-0.79007 -5.5564,-2.01482 -9.14956,-2.55208 -1.17359,-0.17537 -2.21448,-0.47554 -3.36563,-0.97021 -2.95793,-1.27109 -7.3822,-2.4808 -10.04503,-2.74654 -3.092,-0.30841 -0.82071,-0.69256 3.96874,-0.67098 6.81991,0.0302 13.16968,1.57821 17.28948,4.2136 1.4843,0.9495 4.7477,3.44145 5.9938,4.57697 1.177,1.07256 0.6902,0.94594 5.3047,1.3793 l 2.4824,0.2332 -0.8045,-1.06352 c -1.0552,-1.39502 -3.2176,-3.64596 -4.283,-4.45841 -0.4661,-0.35527 -0.8475,-0.69857 -0.8475,-0.7624 0,-0.0639 0.4745,-0.21657 1.0544,-0.33978 0.5798,-0.12321 1.0106,-0.29443 0.9573,-0.38079 -0.096,-0.15572 -1.6124,-1.31274 -2.6291,-2.00632 -3.5564,-2.42616 -8.9016,-4.51465 -13.9347,-5.44445 -4.5785,-0.84586 -7.67861,-1.04606 -14.99299,-0.96813 -16.26279,0.1731 -17.90564,0.0937 -22.75413,-1.10007 -4.5498,-1.12029 -8.87954,-3.70356 -10.75944,-6.41935 l -0.48676,-0.70322 0.10175,1.7639 c 0.20481,3.55047 1.83733,8.32356 3.55941,10.40687 0.43165,0.52226 0.43074,0.51417 -0.0697,-0.61734 -0.85593,-1.93535 -1.64224,-6.34999 -1.13104,-6.34999 0.12699,0 0.23089,0.0741 0.23089,0.16441 0,0.23698 1.55955,1.6786 2.76372,2.55485 3.90669,2.84266 11.29174,5.20826 17.69736,5.6688 0.82461,0.0593 1.61835,0.14891 1.76387,0.19918 0.14551,0.0503 -0.63906,0.27628 -1.74352,0.50211 -2.31507,0.4735 -4.82705,1.2734 -6.72109,2.14016 -1.35482,0.62003 -3.63825,1.97696 -4.39677,2.61275 -2.12586,1.78193 -3.26855,2.93457 -4.11377,4.14943 -0.30372,0.43657 -0.60559,0.83346 -0.67078,0.88195 -0.19363,0.144 -1.75681,2.96992 -1.75681,3.1759 0,0.10431 -0.1643,0.51156 -0.36507,0.90516 -0.2008,0.3936 -0.32628,0.75443 -0.27889,0.80183 0.0474,0.0476 0.18418,-0.099 0.30391,-0.3258 0.37319,-0.70617 1.67009,-2.31352 2.60158,-3.22439 0.49055,-0.47966 0.85115,-0.93804 0.80136,-1.01858 -0.0498,-0.0805 -0.0144,-0.12473 0.0785,-0.0979 0.093,0.0264 0.68384,-0.32731 1.31305,-0.7866 4.02759,-2.93983 9.38935,-4.37748 16.35939,-4.38652 1.69774,-0.002 3.98527,0.0824 5.08339,0.18784 1.96873,0.18936 6.50645,0.8956 7.88116,1.22684 0.38806,0.0933 1.61837,0.38139 2.73404,0.63976 3.9825,0.92232 10.01038,2.83083 13.84398,4.38323 0.8717,0.35301 1.6894,0.6017 1.8171,0.55272 0.1277,-0.0491 0.1879,-0.0189 0.1337,0.0703 -0.054,0.0877 0,0.19502 0.1232,0.23849 0.1218,0.0435 0.1807,0.12434 0.1308,0.17915 -0.05,0.0552 -0.6452,-0.0544 -1.3229,-0.2434 -1.6587,-0.46254 -5.7118,-1.29612 -8.19953,-1.68632 -1.55594,-0.24415 -3.07624,-0.31937 -6.52636,-0.32277 -4.88113,-0.004 -6.41795,0.19276 -9.61516,1.23655 -3.62487,1.18326 -7.1018,3.66852 -9.12175,6.52014 -1.47007,2.07526 -2.83412,5.35786 -3.04191,7.32015 -0.0359,0.3394 -0.12703,0.77609 -0.20235,0.97013 -0.0762,0.19616 0.12423,0.0559 0.45113,-0.31559 0.32353,-0.36737 0.91466,-0.8586 1.31365,-1.09126 0.8521,-0.49694 3.23695,-1.19195 3.36713,-0.98132 0.0495,0.0801 -0.0407,0.49138 -0.20043,0.914 -0.44225,1.17045 -0.39473,3.3535 0.0993,4.55709 0.95511,2.32728 3.04264,4.48596 7.24023,7.48713 1.41157,1.00925 2.85075,2.1394 3.19823,2.51154 1.75811,1.88281 3.04198,4.40213 3.85232,7.55935 0.20814,0.81083 0.80277,1.25209 1.99635,1.48139 1.03454,0.1988 3.17782,0.0737 3.89813,-0.22715 z m -16.00579,-30.06962 c -0.0526,-0.085 0.27912,-0.50355 0.73727,-0.92961 2.61855,-2.43527 5.40602,-3.87391 9.38785,-4.84528 1.59798,-0.38982 6.59525,-0.53144 8.97319,-0.25436 1.70005,0.19804 6.45345,1.26088 6.68785,1.49525 0.2473,0.24718 -0.1756,0.24492 -1.2976,-0.008 -1.9462,-0.43725 -7.94868,-0.5345 -10.57108,-0.17121 -1.16417,0.16139 -2.41432,0.3685 -2.77812,0.46027 -0.36382,0.0918 -0.9988,0.25134 -1.41111,0.35414 -3.00088,0.74797 -7.59771,2.61415 -9.15981,3.71864 -0.25999,0.18369 -0.51579,0.26457 -0.56844,0.17915 z m 26.39996,-7.70529 c -0.2114,-0.14815 -0.9633,-0.51061 -1.6709,-0.80579 -0.7076,-0.29518 -1.5469,-0.65518 -1.8651,-0.79998 -1.397,-0.63583 -7.25552,-2.61263 -10.18119,-3.43544 -6.46054,-1.81693 -11.76831,-2.62231 -17.34888,-2.63251 -3.28458,-0.008 -3.37625,-0.12435 -0.5445,-0.7036 3.69173,-0.75504 9.22165,-0.60862 13.5825,0.35981 4.74593,1.05377 10.25693,3.1917 14.80597,5.74383 3.3436,1.87581 3.7754,2.13932 3.8441,2.34557 0.092,0.27591 -0.1686,0.24605 -0.622,-0.0718 z m -8.09717,33.79287 c 0.81933,-0.19011 1.48897,-0.79963 2.43337,-2.21476 0.6094,-0.91321 0.6378,-0.99455 0.207,-0.59343 -0.8086,0.75296 -1.65353,1.08605 -2.97206,1.17162 -2.25622,0.14627 -3.43386,-0.8307 -3.43894,-2.85324 -0.003,-1.24071 -0.12118,-1.14924 -0.77357,0.59936 -0.64243,1.72184 -0.69474,2.28022 -0.27776,2.96447 0.19547,0.32088 0.61182,0.69471 0.92521,0.83093 0.64509,0.28044 2.86447,0.33449 3.89676,0.0949 z m -0.83958,-4.02277 c -0.43312,-1.88652 -0.50348,-2.99184 -0.29288,-4.60143 0.12012,-0.9182 0.38434,-2.15354 0.58717,-2.74526 0.25478,-0.7432 0.37258,-1.54159 0.38107,-2.58228 0.0117,-1.45248 -0.009,-1.53332 -0.58182,-2.25653 -0.49268,-0.62204 -2.43513,-2.14606 -2.73532,-2.14606 -0.047,0 -0.0117,0.25739 0.0785,0.57211 0.33551,1.16995 0.0528,5.54389 -0.38997,6.03364 -0.086,0.0952 -0.15421,-0.36246 -0.15768,-1.05831 -0.0159,-3.1855 -1.24117,-5.78286 -3.20589,-6.7971 -0.35992,-0.18595 -0.68644,-0.33789 -0.72555,-0.33789 -0.15587,0 -1.00918,2.11895 -1.28328,3.18667 -0.57718,2.24833 0.068,6.94386 1.34833,9.81264 0.60637,1.35866 1.2636,2.69926 1.32329,2.69926 0.0302,0 0.39664,-0.64093 0.81406,-1.42428 0.88629,-1.66337 2.38571,-3.21929 3.01615,-3.12971 0.37945,0.0541 0.39296,0.11754 0.34779,1.6436 -0.0257,0.87311 -0.004,1.83738 0.0487,2.14284 0.12502,0.72541 0.72302,1.47311 1.17815,1.47311 0.30274,0 0.34269,-0.0779 0.24918,-0.48506 z m 8.52265,-12.30309 c 1.9846,-2.34474 3.1887,-4.74686 3.8018,-7.58471 0.1677,-0.77609 0.3647,-1.68892 0.4377,-2.02844 l 0.1328,-0.61738 0.594,1.23473 0.5941,1.23473 0.9218,-0.90935 c 1.0621,-1.04765 1.8586,-1.3708 3.0876,-1.25272 0.6799,0.0654 1.0017,0.21014 1.4649,0.65907 0.3265,0.31635 0.6427,0.77087 0.7027,1.00985 l 0.109,0.43453 0.3585,-0.45577 c 0.6435,-0.81797 0.7431,-0.59097 0.632,1.44042 -0.1171,2.14061 -0.4431,3.52875 -1.191,5.07118 l -0.5132,1.0583 0.6301,-0.70556 c 1.2122,-1.35738 2.7196,-5.12614 2.9234,-7.30862 0.051,-0.54607 -0.031,-0.67208 -0.8254,-1.27707 -1.8866,-1.43588 -4.3366,-1.84116 -7.372,-1.21946 -1.7055,0.34923 -4.7368,1.25053 -5.4332,1.61541 -0.2165,0.11338 -0.3087,0.5602 -0.3985,1.92997 -0.1881,2.87025 -1.106,6.54509 -2.1579,8.63947 -0.2338,0.4656 -0.4252,0.89379 -0.4252,0.9515 0,0.21392 0.7658,-0.54928 1.926,-1.92008 z m -38.95979,-2.91783 c 0.31003,-2.05122 1.01955,-4.34324 1.88152,-6.07797 1.01552,-2.04374 1.58776,-2.8348 3.31411,-4.58143 3.33208,-3.3713 8.39124,-5.35835 14.46386,-5.68093 2.72508,-0.14476 2.41471,-0.25625 -1.84222,-0.66206 -5.55618,-0.52963 -10.85753,-0.33298 -14.72154,0.54576 -6.59612,1.50025 -10.53073,5.65871 -10.81852,11.43398 -0.0556,1.11534 -0.009,2.05829 0.12699,2.55708 l 0.21505,0.79014 0.39041,-1.23114 c 0.54677,-1.72414 1.39514,-3.37822 2.23848,-4.36437 0.77713,-0.90871 2.18713,-1.96868 2.42401,-1.8223 0.0806,0.0499 0.0419,0.58987 -0.086,1.20015 -0.44624,2.12977 -0.24745,4.11995 0.64243,6.43087 0.50224,1.30435 1.38357,2.96678 1.50725,2.84311 0.0359,-0.0378 0.15481,-0.65734 0.26415,-1.38089 z m 55.47569,-8.64597 c 0.5369,-0.59327 0.2805,-1.95591 -0.7995,-4.2486 l -0.2197,-0.46659 -0.4446,0.37841 c -0.2445,0.20825 -0.5332,0.4594 -0.6415,0.55842 -0.1084,0.099 -0.5939,0.49335 -1.079,0.87633 -1.0253,0.80946 -1.5607,1.3223 -1.4724,1.41059 0.034,0.034 0.6971,0.34847 1.4729,0.69838 0.7758,0.34999 1.6487,0.74801 1.9398,0.88486 0.7208,0.33903 0.8638,0.32845 1.244,-0.0918 z m -10.2861,-20.05383 c 0.1584,-0.4608 0.3386,-1.11568 0.4004,-1.4552 l 0.1123,-0.61738 -0.3483,0.52917 c -0.1916,0.29102 -0.6316,0.84665 -0.9779,1.23473 l -0.6295,0.70556 0.48,0.21241 c 0.6737,0.29821 0.6447,0.31673 0.963,-0.60941 z"
         id="path1578-5-6-6-7-35-3-7-3-0"
         inkscape:export-filename="/home/tomas/rect1478.png"
         inkscape:export-xdpi="300"
         inkscape:export-ydpi="300" />
      <text
         xml:space="preserve"
         id="text81122-6-6-0-9"
         style="font-style:normal;font-variant:normal;font-weight:normal;font-stretch:normal;font-size:293.333px;line-height:1.25;font-family:UN;-inkscape-font-specification:UN;letter-spacing:30px;white-space:pre;shape-inside:url(#rect81124-67-7-67-1);display:inline;fill:#153346;fill-opacity:1"
         transform="matrix(0.07275273,0,0,0.07275273,648.94923,76.078279)"
         inkscape:export-filename="/home/tomas/rect1478.png"
         inkscape:export-xdpi="300"
         inkscape:export-ydpi="300"><tspan
           x="3915.1094"
           y="5727.1311"
           id="tspan857"><tspan
             style="font-family:University;-inkscape-font-specification:University"
             id="tspan855">LINCES</tspan></tspan></text>
      <text
         xml:space="preserve"
         id="text81122-6-9-3-3"
         style="font-style:normal;font-variant:normal;font-weight:normal;font-stretch:normal;font-size:293.333px;line-height:1.25;font-family:UN;-inkscape-font-specification:UN;letter-spacing:30px;white-space:pre;shape-inside:url(#rect81124-67-18-3-2);display:inline;fill:#153346;fill-opacity:1"
         transform="matrix(0.07275273,0,0,0.07275273,648.94923,76.078279)"
         inkscape:export-filename="/home/tomas/rect1478.png"
         inkscape:export-xdpi="300"
         inkscape:export-ydpi="300"><tspan
           x="3915.1094"
           y="5727.1311"
           id="tspan861"><tspan
             style="font-family:University;-inkscape-font-specification:University"
             id="tspan859">LINCES</tspan></tspan></text>
      <text
         xml:space="preserve"
         id="text93560-2-2-6-6"
         style="font-style:normal;font-variant:normal;font-weight:bold;font-stretch:normal;font-size:146.667px;line-height:1.25;font-family:sans-serif;-inkscape-font-specification:'sans-serif Bold';white-space:pre;shape-inside:url(#rect93562-5-7-5-7);display:inline;fill:#153346;fill-opacity:1"
         transform="matrix(0.05138907,0,0,0.05138907,717.48121,240.42738)"
         inkscape:export-filename="/home/tomas/rect1478.png"
         inkscape:export-xdpi="300"
         inkscape:export-ydpi="300"><tspan
           x="4793.8438"
           y="5097.6264"
           id="tspan863">VOLEY CLUB</tspan></text>
    </g>
  </g>
</svg>
